<svg width="80" height="80" viewBox="0 0 80 80" fill="none" xmlns="http://www.w3.org/2000/svg">
<path d="M70 56.6544V52.8968L58.2982 41.4679V30.7839H53.2378V36.5279L45.8525 29.3163C45.1277 12.9734 42.7835 1 40 1C37.2165 1 34.8723 12.9733 34.1475 29.3125L26.7622 36.5241V30.7801H21.7018V41.4642L10 52.8968V56.6544L34.1695 51.2476C34.4517 57.2547 34.9552 62.6433 35.6158 67.0451L26.3063 76.1354V77.8512L37.4309 75.3646C38.2134 77.6919 39.0824 79 39.9996 79C40.9168 79 41.7858 77.6919 42.5651 75.3646L53.6897 77.8512V76.1354L44.3835 67.0451C45.0441 62.6427 45.5476 57.2547 45.8297 51.2476L70 56.6544Z" fill="black"/>
</svg>
