<svg width="80" height="80" viewBox="0 0 80 80" fill="none" xmlns="http://www.w3.org/2000/svg">
<path d="M60.8618 35.1835H43.2279L43.6079 28.8457C43.7039 27.2359 42.7239 25.8253 41.3059 25.2774H45.0019C45.4659 25.2774 45.8379 24.8988 45.8379 24.4446C45.8379 23.9824 45.4659 23.6038 45.0019 23.6038H40.8379V22.8328C40.8379 22.3785 40.4659 22 40.0019 22C39.5379 22 39.1659 22.3785 39.1659 22.8328V23.6038H35.0019C34.5379 23.6038 34.1659 23.9824 34.1659 24.4446C34.1659 24.8988 34.5379 25.2774 35.0019 25.2774H38.698C37.28 25.8253 36.3 27.2359 36.396 28.8457L36.776 35.1835H19.138C17.406 35.1835 16 36.5822 16 38.3095C16 39.9373 17.252 41.2921 18.88 41.4236L30.2562 42.356C32.5742 42.5453 34.8982 42.6648 37.222 42.7186L37.774 51.9611H33.6459C32.6579 51.9611 31.8579 52.7581 31.8579 53.7423C31.8579 54.7265 32.6579 55.5235 33.6459 55.5235H37.99L38.028 56.1471C38.088 57.1891 38.954 58 40 58C41.046 58 41.912 57.1871 41.974 56.1471L42.012 55.5235H46.3561C47.3441 55.5235 48.1441 54.7265 48.1441 53.7423C48.1441 52.7581 47.3441 51.9611 46.3561 51.9611H42.226L42.778 42.7186C45.1021 42.6648 47.426 42.5453 49.7438 42.356L61.12 41.4236C62.748 41.2921 64 39.9373 64 38.3095C64 36.5841 62.5958 35.1835 60.8618 35.1835Z" fill="black"/>
</svg>
