<svg width="80" height="80" viewBox="0 0 80 80" fill="none" xmlns="http://www.w3.org/2000/svg">
<path d="M39.9976 16L38.6739 16.6629L37.4548 18.0891L35.7672 23.6176L35.3653 29.9417L23.2949 16.89L21.8188 18.2954L35.3198 31.3601L35.4018 33.0003L34.1446 34.4284V38.9646L34.6113 39.3567L21 52.0922L22.4952 53.6491L35.6457 40.0427L36.1886 40.0389L36.8553 42.7246L38.2153 45.0012L38.84 58.4107L35.061 58.3445L36.7581 62.2405L38.8876 60.712L39.1733 64L40 63.9848L40.8267 64L41.1124 60.712L43.2419 62.2405L44.939 58.3445L41.16 58.4107L41.7847 45.0012L43.1447 42.7246L43.8114 40.0389L44.3543 40.0427L57.5048 53.6491L59 52.0922L45.3887 39.3567L45.8554 38.9646L45.8535 34.4303L44.5963 33.0022L44.6782 31.3601L58.1774 18.2954L56.7012 16.89L44.6308 29.9417L44.2289 23.6176L42.5413 18.0891L41.3223 16.6629L39.9976 16ZM36.0091 17.9887C33.4758 18.5474 31.1387 19.6252 29.1157 21.1082L30.1938 22.273C31.7709 21.1442 33.5499 20.2805 35.4717 19.7483L36.0091 17.9887ZM43.986 17.9887L44.5232 19.7502C46.4431 20.2824 48.2241 21.146 49.7992 22.2749L50.8772 21.1082C48.8563 19.6252 46.5194 18.5475 43.986 17.9887ZM34.8032 21.9396C33.6185 22.379 32.508 22.9643 31.489 23.6726L32.567 24.8393C33.127 24.4643 33.7194 24.131 34.3384 23.8431L34.3575 23.5306C34.3632 23.4226 34.3841 23.3146 34.4146 23.2105L34.8032 21.9396ZM45.1919 21.9396L45.5804 23.2105C45.6128 23.3147 45.6319 23.4208 45.6376 23.5306L45.6566 23.8431C46.2738 24.131 46.8662 24.4643 47.428 24.8394L48.5061 23.6746C47.4871 22.9643 46.3766 22.379 45.1919 21.9396ZM25.8589 24.167C23.2228 27.3281 21.6361 31.3872 21.6361 35.8097C21.6361 39.7511 22.8989 43.3988 25.0399 46.3856L26.2017 45.2984C24.3274 42.6051 23.2265 39.3379 23.2265 35.8096C23.2265 31.8075 24.6398 28.139 26.9979 25.2676L25.8589 24.167ZM54.1367 24.167L52.9996 25.2674C55.3576 28.1388 56.771 31.8073 56.771 35.8094C56.771 39.3379 55.67 42.6053 53.7938 45.2983L54.9557 46.3855C57.0967 43.4005 58.3595 39.7505 58.3595 35.8095C58.3595 31.387 56.7729 27.3303 54.1367 24.167ZM28.3638 26.5914C26.3314 29.1218 25.1143 32.3264 25.1143 35.8097C25.1143 38.8325 26.0304 41.645 27.6 43.9899L28.7714 42.8932C27.4647 40.8458 26.7047 38.4177 26.7047 35.8079C26.7047 32.7452 27.7504 29.9308 29.5028 27.6902L28.3638 26.5914ZM51.6323 26.5914L50.4952 27.6918C52.2476 29.9305 53.2952 32.7451 53.2952 35.8075C53.2952 38.4155 52.5352 40.8457 51.2266 42.8929L52.398 43.9876C53.9675 41.6428 54.8837 38.83 54.8837 35.8074C54.8837 32.3224 53.6647 29.1196 51.6342 26.5891L51.6323 26.5914ZM30.7297 28.8793C29.2668 30.8094 28.3983 33.2091 28.3983 35.8076C28.3983 37.963 28.9964 39.982 30.0364 41.7094L31.2212 40.6014C30.4364 39.1809 29.9888 37.5483 29.9888 35.8077C29.9888 33.6314 30.6955 31.6276 31.8802 29.9912L30.7297 28.8793ZM49.2669 28.8793L48.1164 29.993C49.3031 31.6295 50.0078 33.6333 50.0078 35.8095C50.0078 37.5482 49.5602 39.1809 48.7755 40.6033L49.9602 41.7113C50.9983 39.9839 51.5983 37.9649 51.5983 35.8095C51.5983 33.2109 50.7298 30.811 49.2669 28.8812L49.2669 28.8793ZM45.9945 43.7721C45.185 44.3744 44.2841 44.8573 43.3108 45.1964L43.1774 45.4199L43.1069 46.9218C44.5755 46.5146 45.9279 45.8271 47.1031 44.9199L45.9945 43.7721ZM34.0021 43.7721L32.8936 44.918C34.0669 45.8252 35.4193 46.5127 36.8897 46.9199L36.8193 45.4179L36.6859 45.1963C35.7126 44.8573 34.8097 44.3744 34.0002 43.772L34.0021 43.7721ZM48.2878 46.1453C46.7697 47.3499 44.9812 48.2287 43.023 48.6814L42.9468 50.3159C45.3544 49.8329 47.5506 48.7704 49.3868 47.2836L48.2878 46.1453ZM31.7069 46.1453L30.6079 47.2836C32.444 48.7704 34.6402 49.8329 37.0478 50.3159L36.9716 48.6814C35.0155 48.2325 33.225 47.3517 31.7088 46.1471L31.7069 46.1453ZM50.7069 48.6492C48.4974 50.4712 45.8097 51.7364 42.8572 52.2402L42.7829 53.8558C46.1867 53.3387 49.2819 51.8898 51.8038 49.7818L50.7069 48.6492ZM29.2859 48.6492L28.1907 49.7837C30.7107 51.8917 33.808 53.3425 37.2116 53.8577L37.1373 52.2421C34.1849 51.7401 31.4975 50.475 29.2876 48.651L29.2859 48.6492Z" fill="black"/>
</svg>
