<svg width="80" height="80" viewBox="0 0 80 80" fill="none" xmlns="http://www.w3.org/2000/svg">
<path d="M79.1039 32.3903L62.3319 32.0054H41.9055C41.9319 31.7136 41.8959 30.23 41.7511 26.6677C41.5879 22.6502 39.9543 21 39.9543 21C39.9543 21 38.3207 22.651 38.1575 26.6677C38.0119 30.23 37.9751 31.7136 38.0023 32.0054H17.5743L0.803904 32.3903C0.803904 32.3903 0.0415039 32.5003 0.0415039 33.1058C0.0415039 33.7114 0.0415039 34.5369 0.0415039 34.5369L15.0023 35.8022L27.8655 36.5177C27.8655 36.5177 37.3111 37.0683 37.8303 37.0683C38.2199 37.0683 38.3367 37.3214 38.3711 37.6553L38.3855 38.0078C38.3855 38.0167 38.3855 38.0256 38.3863 38.0345L39.0183 54.499L33.9095 55.2283C33.9095 55.2283 33.0935 55.5032 33.0935 56.108C33.0935 56.7135 33.0935 57.1008 33.0935 57.1008L39.0191 57.7064L39.4855 57.0135L39.8063 57.9691L39.9535 58.2554L40.1007 57.9691L40.4207 57.0135L40.8879 57.7056L46.8143 57.1C46.8143 57.1 46.8143 56.7127 46.8143 56.1071C46.8143 55.5024 45.9959 55.2275 45.9959 55.2275L40.8895 54.4982L41.5215 38.0337C41.5223 38.0256 41.5223 38.0167 41.5223 38.007L41.5367 37.6545C41.5703 37.3206 41.6871 37.0675 42.0767 37.0675C42.5951 37.0675 52.0423 36.5169 52.0423 36.5169L64.9047 35.8014L79.8647 34.5361C79.8647 34.5361 79.8647 33.7106 79.8647 33.105C79.8647 32.5011 79.1039 32.3903 79.1039 32.3903ZM40.9647 30.7312C40.9647 30.7312 40.8151 31.4896 39.9535 31.53C39.0911 31.4896 38.9415 30.7312 38.9415 30.7312C38.9415 30.7312 38.8415 28.2887 39.0407 26.2957C39.1711 25.0005 39.3143 24.1508 39.9535 24.0917C40.5927 24.1508 40.7351 25.0005 40.8663 26.2957C41.0655 28.2887 40.9647 30.7312 40.9647 30.7312Z" fill="black"/>
</svg>
