<svg width="80" height="80" viewBox="0 0 80 80" fill="none" xmlns="http://www.w3.org/2000/svg">
<path d="M64 51.5302V48.9288L44.682 32.6024C44.1022 21.291 42.2268 13.002 40 13.002C37.7732 13.002 35.8978 21.291 35.318 32.6024L16 48.9288V51.5302L35.3357 47.7872C35.5615 51.9458 35.9643 55.6762 36.4928 58.7236L29.0451 65.0167V66.2045L37.9449 64.4831C38.5708 66.0942 39.2661 66.9998 39.9998 66.9998C40.7335 66.9998 41.4288 66.0942 42.0522 64.4831L50.952 66.2045V65.0167L43.5069 58.7236C44.0354 55.6758 44.4382 51.9458 44.6639 47.7872L64 51.5302Z" fill="black"/>
</svg>
